<svg width="48" height="48" viewBox="0 0 48 48" fill="none" xmlns="http://www.w3.org/2000/svg">
<g clip-path="url(#clip0_201_158)">
<path d="M0 17.3714C0 11.2909 0 8.25057 1.18336 5.9281C2.22427 3.8852 3.8852 2.22427 5.9281 1.18336C8.25057 0 11.2909 0 17.3714 0H30.6286C36.7091 0 39.7494 0 42.0719 1.18336C44.1148 2.22427 45.7757 3.8852 46.8166 5.9281C48 8.25057 48 11.2909 48 17.3714V30.6286C48 36.7091 48 39.7494 46.8166 42.0719C45.7757 44.1148 44.1148 45.7757 42.0719 46.8166C39.7494 48 36.7091 48 30.6286 48H17.3714C11.2909 48 8.25057 48 5.9281 46.8166C3.8852 45.7757 2.22427 44.1148 1.18336 42.0719C0 39.7494 0 36.7091 0 30.6286V17.3714Z" fill="#470137"/>
<path d="M24.9697 15.3507L19.7291 24.2222L25.336 33.6428C25.4525 33.8564 25.336 33.9036 25.1669 33.9036H21.1661C20.8843 33.9036 20.6871 33.8934 20.5744 33.7006C20.1984 32.9493 19.8228 32.2028 19.4474 31.4611C19.0714 30.7196 18.6723 29.9635 18.25 29.1926C17.8274 28.4223 17.4094 27.6421 16.9962 26.8519C16.6202 27.6226 16.2023 28.3932 15.7987 29.1637C15.3946 29.9345 14.9955 30.7002 14.6013 31.4611C14.2069 32.2223 13.8031 32.9785 13.3898 33.7295C13.3145 33.9029 13.1829 33.9208 12.9953 33.9208H9.13539C8.98373 33.9208 8.96543 33.8068 9.05088 33.6717L14.4886 24.5112L9.1917 15.3218C9.09548 15.1907 9.1783 15.051 9.33261 15.0617H13.3052C13.4772 15.052 13.6293 15.1169 13.7279 15.264C14.066 16.0347 14.4416 16.8053 14.8548 17.5758C15.2678 18.3466 15.6858 19.1075 16.1086 19.8587C16.5313 20.61 16.9492 21.371 17.3061 22.1416C17.6816 21.3519 18.062 20.5813 18.4472 19.8298C18.832 19.0785 19.2264 18.3223 19.6305 17.5614C20.0343 16.8005 20.424 16.0444 20.7998 15.2929C20.8497 15.1281 20.9691 15.0445 21.1379 15.0617H24.8288C24.9697 15.0617 25.028 15.2541 24.9697 15.3507Z" fill="#FF61F6"/>
<path d="M33.0557 34.2788C30.5709 34.3175 27.9683 33.2945 26.66 31.0278C26.0212 29.9396 25.7019 28.5766 25.702 26.9388C25.6914 25.6125 26.0219 24.3068 26.66 23.1532C28.3065 20.21 31.6236 19.1072 34.7744 19.3966V13.7038C34.7744 13.5692 34.8307 13.5015 34.9435 13.5015H38.4934C38.5905 13.4873 38.6764 13.5754 38.6625 13.6749V30.7533C38.6625 31.4579 38.7324 32.1601 38.7753 32.8628C38.7822 32.9828 38.7127 33.1015 38.6062 33.1518C36.8521 33.9021 34.9542 34.2701 33.0557 34.2788ZM34.7743 30.6955V22.8065C32.201 22.0915 29.7025 24.0516 29.7029 26.7654C29.6417 29.5712 32.0603 31.5096 34.7743 30.6955Z" fill="#FF61F6"/>
</g>
<defs>
<clipPath id="clip0_201_158">
<rect width="48" height="48" fill="white"/>
</clipPath>
</defs>
</svg>
