<svg width="48" height="48" viewBox="0 0 48 48" fill="none" xmlns="http://www.w3.org/2000/svg">
<path fill-rule="evenodd" clip-rule="evenodd" d="M6.66435 43.2015L2.8125 0H45.1382L41.2822 43.1944L23.9497 48L6.66435 43.2015Z" fill="#0071BC"/>
<path fill-rule="evenodd" clip-rule="evenodd" d="M24.011 44.3245L37.9991 40.4764L41.2765 3.59778H24.011V44.3245Z" fill="#29ABE2"/>
<path fill-rule="evenodd" clip-rule="evenodd" d="M11.6294 19.4698L12.0934 24.7605L24.0109 19.4698V14.1705L11.6294 19.4698Z" fill="#B3B3B3"/>
<path fill-rule="evenodd" clip-rule="evenodd" d="M37.21 8.51379L24.011 14.1705V19.4698L36.7549 13.8045L37.21 8.51379Z" fill="#E6E6E6"/>
<path fill-rule="evenodd" clip-rule="evenodd" d="M24.011 33.3129L23.97 33.319L18.0598 31.7318L17.6737 27.5117H12.3545L13.0968 35.8255L23.9689 38.8359L24.011 38.8259V33.3129Z" fill="#E6E6E6"/>
<path fill-rule="evenodd" clip-rule="evenodd" d="M24.011 19.4698V24.7606H30.4817L29.8936 31.6777L24.011 33.3174V38.8301L34.847 35.8197L36.2739 19.4698H24.011Z" fill="white"/>
<path fill-rule="evenodd" clip-rule="evenodd" d="M24.0109 19.4698H11.6294L12.0934 24.7606H24.0109V19.4698Z" fill="#E6E6E6"/>
<path fill-rule="evenodd" clip-rule="evenodd" d="M24.011 13.8045V8.51379H23.9572H10.6887L11.1582 13.8045H24.011Z" fill="#E6E6E6"/>
<path fill-rule="evenodd" clip-rule="evenodd" d="M24.011 8.51379V13.7382V13.8045H36.7549L37.21 8.51379H24.011Z" fill="white"/>
</svg>
