<svg width="48" height="48" viewBox="0 0 48 48" fill="none" xmlns="http://www.w3.org/2000/svg">
<g clip-path="url(#clip0_867_22590)">
<path d="M7.33342 74C16.5334 74 24.0001 66.5334 24.0001 57.3334V40.6667H7.33342C-1.86658 40.6667 -9.33325 48.1334 -9.33325 57.3334C-9.33325 66.5334 -1.86658 74 7.33342 74Z" fill="#0ACF83"/>
<path d="M-9.33325 23.9999C-9.33325 14.7999 -1.86658 7.33325 7.33342 7.33325H24.0001V40.6665H7.33342C-1.86658 40.6665 -9.33325 33.1999 -9.33325 23.9999Z" fill="#A259FF"/>
<path d="M-9.33325 -9.33334C-9.33325 -18.5333 -1.86658 -26 7.33342 -26H24.0001V7.33332H7.33342C-1.86658 7.33332 -9.33325 -0.133345 -9.33325 -9.33334Z" fill="#F24E1E"/>
<path d="M24 -26H40.6667C49.8667 -26 57.3334 -18.5333 57.3334 -9.33334C57.3334 -0.133345 49.8667 7.33332 40.6667 7.33332H24V-26Z" fill="#FF7262"/>
<path d="M57.3334 23.9999C57.3334 33.1999 49.8667 40.6665 40.6667 40.6665C31.4667 40.6665 24 33.1999 24 23.9999C24 14.7999 31.4667 7.33325 40.6667 7.33325C49.8667 7.33325 57.3334 14.7999 57.3334 23.9999Z" fill="#1ABCFE"/>
</g>
<defs>
<clipPath id="clip0_867_22590">
<rect width="48" height="48" fill="white"/>
</clipPath>
</defs>
</svg>
