<svg width="128" height="128" viewBox="0 0 128 128" fill="none" xmlns="http://www.w3.org/2000/svg">
<path d="M0 32C0 14.3269 14.3269 0 32 0H96C113.673 0 128 14.3269 128 32V96C128 113.673 113.673 128 96 128H32C14.3269 128 0 113.673 0 96V32Z" fill="black"/>
<path fill-rule="evenodd" clip-rule="evenodd" d="M52.5291 77.7052L52.5281 77.7059L52.5197 77.7146L52.5291 77.7052ZM52.5291 77.7052L86.0442 52.9843C87.6874 51.7724 90.0359 52.2451 90.819 54.1277C94.9395 64.0558 93.0985 75.9869 84.9 84.1787C76.7018 92.3702 65.2946 94.1668 54.8682 90.0752L43.4782 95.3446C59.8148 106.502 79.6525 103.743 92.049 91.3475C101.882 81.5224 104.927 68.1301 102.08 56.0532L102.105 56.0789C97.9761 38.3372 103.121 31.2457 113.659 16.7446L113.693 16.6979C113.931 16.3696 114.169 16.0409 114.407 15.7045L100.54 29.5609V29.5179L52.5291 77.7052ZM45.9126 45.2141C35.9077 55.2022 33.8861 72.5227 45.6117 83.7146L45.6029 83.723L13.5923 112.296C15.5964 109.538 18.0784 106.931 20.5583 104.326L20.6551 104.224L20.6763 104.202C27.7578 96.7653 34.7765 89.3946 30.488 78.9783C24.7414 65.0273 28.0879 48.678 38.7294 38.0451C49.7924 26.9995 66.086 24.2145 79.6954 29.8103C82.7063 30.9278 85.3303 32.518 87.3776 33.9965L76.0134 39.2399C65.4321 34.8045 53.3108 37.8216 45.9126 45.2141Z" fill="white"/>
</svg>
