<svg width="48" height="48" viewBox="0 0 48 48" fill="none" xmlns="http://www.w3.org/2000/svg">
<path d="M8.5 0H39.5C44.2 0 48 3.89744 48 8.71795V39.2821C48 44.1026 44.2 48 39.5 48H8.5C3.8 48 0 44.1026 0 39.2821V8.71795C0 3.89744 3.8 0 8.5 0Z" fill="#001E36"/>
<path d="M10.8 33.6615V12.5539C10.8 12.4103 10.86 12.3282 11 12.3282C11.34 12.3282 11.66 12.3282 12.12 12.3077C12.6 12.2872 13.1 12.2872 13.64 12.2667C14.18 12.2462 14.76 12.2462 15.38 12.2256C16 12.2051 16.6 12.2051 17.2 12.2051C18.84 12.2051 20.2 12.4103 21.32 12.841C22.32 13.1898 23.24 13.7641 24 14.5231C24.64 15.1795 25.14 15.9795 25.46 16.8615C25.76 17.7231 25.92 18.6051 25.92 19.5282C25.92 21.2923 25.52 22.7487 24.72 23.8974C23.92 25.0462 22.8 25.9077 21.5 26.4C20.14 26.9128 18.64 27.0974 17 27.0974C16.52 27.0974 16.2 27.0974 16 27.0769C15.8 27.0564 15.52 27.0564 15.14 27.0564V33.641C15.16 33.7846 15.06 33.9077 14.92 33.9282C14.9 33.9282 14.88 33.9282 14.84 33.9282H11.04C10.88 33.9282 10.8 33.8462 10.8 33.6615ZM15.16 16.2872V23.1795C15.44 23.2 15.7 23.2205 15.94 23.2205H17C17.78 23.2205 18.56 23.0974 19.3 22.8513C19.94 22.6667 20.5 22.2769 20.94 21.7641C21.36 21.2513 21.56 20.5539 21.56 19.6513C21.58 19.0154 21.42 18.3795 21.1 17.8256C20.76 17.2923 20.28 16.8821 19.7 16.6564C18.96 16.3487 18.16 16.2256 17.34 16.2462C16.82 16.2462 16.36 16.2462 15.98 16.2667C15.58 16.2462 15.3 16.2667 15.16 16.2872Z" fill="#31A8FF"/>
<path d="M38.3999 21.9282C37.7999 21.6 37.1599 21.3744 36.4799 21.2308C35.7399 21.0667 34.9999 20.9641 34.2399 20.9641C33.8399 20.9436 33.4199 21.0051 33.0399 21.1077C32.7799 21.1692 32.5599 21.3128 32.4199 21.518C32.3199 21.6821 32.2599 21.8872 32.2599 22.0718C32.2599 22.2564 32.3399 22.441 32.4599 22.6051C32.6399 22.8308 32.8799 23.0154 33.1399 23.159C33.5999 23.4051 34.0799 23.6308 34.5599 23.8359C35.6399 24.2051 36.6799 24.718 37.6399 25.3333C38.2999 25.7641 38.8399 26.3385 39.2199 27.0359C39.5399 27.6923 39.6999 28.4103 39.6799 29.1487C39.6999 30.1128 39.4199 31.0769 38.8999 31.8769C38.3399 32.6974 37.5599 33.3333 36.6599 33.7026C35.6799 34.1333 34.4799 34.359 33.0399 34.359C32.1199 34.359 31.2199 34.2769 30.3199 34.0923C29.6199 33.9692 28.9199 33.7436 28.2799 33.4359C28.1399 33.3539 28.0399 33.2103 28.0599 33.0462V29.4769C28.0599 29.4154 28.0799 29.3333 28.1399 29.2923C28.1999 29.2513 28.2599 29.2718 28.3199 29.3128C29.0999 29.7846 29.9199 30.1128 30.7999 30.318C31.5599 30.5231 32.3599 30.6257 33.1599 30.6257C33.9199 30.6257 34.4599 30.5231 34.8199 30.3385C35.1399 30.1949 35.3599 29.8462 35.3599 29.4769C35.3599 29.1898 35.1999 28.9231 34.8799 28.6564C34.5599 28.3898 33.8999 28.0821 32.9199 27.6923C31.8999 27.3231 30.9599 26.8308 30.0799 26.2154C29.4599 25.7641 28.9399 25.1692 28.5599 24.4718C28.2399 23.8154 28.0799 23.0974 28.0999 22.3795C28.0999 21.4974 28.3399 20.6564 28.7799 19.8974C29.2799 19.0769 30.0199 18.4205 30.8799 18.0103C31.8199 17.518 32.9999 17.2923 34.4199 17.2923C35.2399 17.2923 36.0799 17.3539 36.8999 17.4769C37.4999 17.559 38.0799 17.7231 38.6199 17.9487C38.6999 17.9692 38.7799 18.0513 38.8199 18.1333C38.8399 18.2154 38.8599 18.2974 38.8599 18.3795V21.7231C38.8599 21.8051 38.8199 21.8872 38.7599 21.9282C38.5799 21.9692 38.4799 21.9692 38.3999 21.9282Z" fill="#31A8FF"/>
</svg>
