<svg width="100" height="100" viewBox="0 0 100 100" fill="none" xmlns="http://www.w3.org/2000/svg">
<path fill-rule="evenodd" clip-rule="evenodd" d="M58.6929 12.0146C69.9348 12.0107 81.1771 11.9765 92.419 12.0239C99.1022 12.0512 100.987 14.2844 99.5458 20.8846C95.3268 40.2143 91.0129 59.5244 86.641 78.8204C85.2584 84.9193 82.0819 87.4178 75.6659 87.4368C53.1817 87.5037 30.6974 87.5111 8.21374 87.4339C0.864588 87.408 -1.06858 84.9189 0.514792 77.9542C4.81104 59.0393 9.13024 40.1302 13.4841 21.2285C15.1427 14.0254 17.6353 12.0478 24.9659 12.0268C36.2082 11.9951 47.4506 12.0185 58.6929 12.0146Z" fill="#E0EAF5"/>
<path fill-rule="evenodd" clip-rule="evenodd" d="M41.7038 85.189C30.4605 85.1851 19.2167 85.2368 7.97388 85.1631C2.27259 85.1259 1.2359 83.7805 2.5193 78.2043C6.87026 59.2928 11.3614 40.413 15.6157 21.4801C16.7564 16.4021 19.2172 14.1578 24.6576 14.2081C47.1423 14.4167 69.6309 14.275 92.1171 14.298C97.7563 14.3034 98.7031 15.5096 97.4373 21.2289C93.3272 39.797 89.1912 58.3597 84.9824 76.9057C83.4073 83.8465 81.5929 85.1709 74.2906 85.187C63.4284 85.21 52.5656 85.1929 41.7038 85.189Z" fill="#2671BE"/>
<path fill-rule="evenodd" clip-rule="evenodd" d="M51.271 48.1272C50.5172 47.2429 49.6896 46.2248 48.8131 45.2516C43.8432 39.7311 38.9172 34.1695 33.8588 28.7315C31.5441 26.2429 30.8064 23.8261 33.5862 21.3697C36.3333 18.9416 39.0325 19.1566 41.5524 21.9501C48.5703 29.7272 55.5799 37.5131 62.7141 45.1832C65.3776 48.048 64.7572 49.9958 61.8235 52.1185C50.5631 60.2689 39.3662 68.5077 28.1815 76.7621C25.6674 78.6181 23.2706 79.0827 21.2398 76.3415C18.9993 73.3179 21.0722 71.5191 23.3962 69.8268C31.7078 63.7727 40.0032 57.6962 48.263 51.5719C49.4135 50.7189 51.0653 50.2215 51.271 48.1272Z" fill="#FDFDFE"/>
<path fill-rule="evenodd" clip-rule="evenodd" d="M54.831 77.3754C51.804 77.3754 48.7726 77.4794 45.7524 77.3421C43.3429 77.2332 41.8929 75.8868 41.9232 73.3488C41.9525 70.9491 43.1621 69.1449 45.5692 69.0799C52.185 68.9026 58.8106 68.9407 65.4289 69.0701C67.5321 69.1112 69.0847 70.4815 69.072 72.6731C69.0569 75.1872 67.7339 77.135 65.0415 77.2972C61.6491 77.5024 58.2356 77.348 54.8315 77.348C54.831 77.3563 54.831 77.3661 54.831 77.3754Z" fill="#FCFDFD"/>
</svg>
