<svg width="100" height="90" viewBox="0 0 100 90" fill="none" xmlns="http://www.w3.org/2000/svg">
<path fill-rule="evenodd" clip-rule="evenodd" d="M20.2509 32.083L49.9958 89.9736L0 32.083H20.2509Z" fill="#EA6C00"/>
<path fill-rule="evenodd" clip-rule="evenodd" d="M79.7491 32.083L50.0042 89.9736L100 32.083H79.7491Z" fill="#EA6C00"/>
<path fill-rule="evenodd" clip-rule="evenodd" d="M20.2498 32.083H79.7395L49.9946 89.9736L20.2498 32.083Z" fill="#FDAD00"/>
<path fill-rule="evenodd" clip-rule="evenodd" d="M49.9946 0L21.8153 2.9619L20.2498 32.083L49.9946 0Z" fill="#FDD231"/>
<path fill-rule="evenodd" clip-rule="evenodd" d="M49.9946 0L78.1739 2.9619L79.7395 32.083L49.9946 0Z" fill="#FDD231"/>
<path fill-rule="evenodd" clip-rule="evenodd" d="M100 32.0831L78.1835 2.96191L79.7491 32.0831H100Z" fill="#FDAD00"/>
<path fill-rule="evenodd" clip-rule="evenodd" d="M0 32.0831L21.8164 2.96191L20.2509 32.0831H0Z" fill="#FDAD00"/>
<path fill-rule="evenodd" clip-rule="evenodd" d="M49.9946 0L20.2498 32.083H79.7395L49.9946 0Z" fill="#FEEEB7"/>
</svg>
