<svg width="48" height="48" viewBox="0 0 48 48" fill="none" xmlns="http://www.w3.org/2000/svg">
<path d="M47.8412 7.10467L25.2932 47.3737C24.8276 48.2051 23.6315 48.21 23.159 47.3826L0.164002 7.10842C-0.350873 6.20693 0.421065 5.1148 1.44407 5.29757L24.0163 9.32694C24.1603 9.35264 24.3077 9.35239 24.4517 9.32619L46.5517 5.30319C47.5714 5.11761 48.3469 6.20131 47.8412 7.10467V7.10467Z" fill="url(#paint0_linear_867_20158)"/>
<path d="M34.7685 0.011818L18.0825 3.27734C17.9492 3.30343 17.8283 3.37303 17.7389 3.4752C17.6495 3.57737 17.5966 3.70631 17.5886 3.84176L16.5622 21.1555C16.5566 21.2505 16.5732 21.3455 16.6107 21.4329C16.6482 21.5203 16.7056 21.5978 16.7784 21.6592C16.8511 21.7206 16.9372 21.7642 17.0298 21.7866C17.1223 21.809 17.2189 21.8095 17.3117 21.7881L21.9574 20.7173C22.392 20.6171 22.7848 20.9995 22.6954 21.4361L21.3152 28.1864C21.2224 28.6407 21.6493 29.0291 22.0935 28.8943L24.963 28.0237C25.4078 27.8888 25.8353 28.2783 25.7411 28.733L23.5478 39.3362C23.4105 39.9994 24.2938 40.3611 24.6621 39.7925L24.9083 39.4127L38.505 12.3118C38.7329 11.858 38.34 11.3406 37.8413 11.4369L33.0591 12.3586C32.6098 12.4451 32.2275 12.0271 32.3543 11.5882L35.4754 0.782039C35.6023 0.341966 35.2185 -0.0761966 34.7687 0.011818H34.7685Z" fill="url(#paint1_linear_867_20158)"/>
<defs>
<linearGradient id="paint0_linear_867_20158" x1="-0.39744" y1="8.5465" x2="23.8808" y2="41.5599" gradientUnits="userSpaceOnUse">
<stop stop-color="#41D1FF"/>
<stop offset="1" stop-color="#BD34FE"/>
</linearGradient>
<linearGradient id="paint1_linear_867_20158" x1="26.1083" y1="0.898473" x2="31.0987" y2="35.1743" gradientUnits="userSpaceOnUse">
<stop stop-color="#FFEA83"/>
<stop offset="0.083" stop-color="#FFDD35"/>
<stop offset="1" stop-color="#FFA800"/>
</linearGradient>
</defs>
</svg>
