<svg width="100" height="98" viewBox="0 0 100 98" fill="none" xmlns="http://www.w3.org/2000/svg">
<path d="M17.7083 0H82.2917C92.0833 0 100 7.91667 100 17.7083V79.7917C100 89.5833 92.0833 97.5 82.2917 97.5H17.7083C7.91667 97.5 0 89.5833 0 79.7917V17.7083C0 7.91667 7.91667 0 17.7083 0Z" fill="#470137"/>
<path d="M52.5833 25.625L40.0833 46.25L53.4166 68.125C53.5 68.2917 53.5416 68.4583 53.5 68.625C53.4583 68.7917 53.2916 68.6667 53.0416 68.7083H43.5C42.8333 68.7083 42.375 68.6667 42.0833 68.25C41.2083 66.5 40.2916 64.7917 39.4166 63.0417C38.5416 61.3333 37.5833 59.5833 36.5833 57.7917C35.5833 56 34.5833 54.2083 33.5833 52.375H33.5C32.625 54.1667 31.6666 55.9583 30.7083 57.75C29.75 59.5417 28.7916 61.3333 27.875 63.0833C26.9166 64.8333 25.9583 66.625 25 68.3333C24.8333 68.75 24.5 68.7917 24.0416 68.7917H14.875C14.7083 68.7917 14.5833 68.875 14.5833 68.6667C14.5416 68.5 14.5833 68.3333 14.6666 68.2083L27.625 46.9583L15 25.5833C14.875 25.4167 14.8333 25.25 14.9166 25.1667C15 25.0417 15.1666 25 15.3333 25H24.7916C25 25 25.2083 25.0417 25.375 25.0833C25.5416 25.1667 25.6666 25.2917 25.7916 25.4583C26.5833 27.25 27.5 29.0417 28.4583 30.8333C29.4583 32.625 30.4166 34.375 31.4583 36.125C32.4583 37.875 33.375 39.625 34.25 41.4167H34.3333C35.2083 39.5833 36.125 37.7917 37.0416 36.0417C37.9583 34.2917 38.9166 32.5417 39.875 30.7917C40.8333 29.0417 41.75 27.25 42.6666 25.5417C42.7083 25.375 42.7916 25.2083 42.9166 25.125C43.0833 25.0417 43.25 25 43.4583 25.0417H52.25C52.4583 25 52.6666 25.125 52.7083 25.3333C52.75 25.375 52.6666 25.5417 52.5833 25.625Z" fill="#FF61F6"/>
<path d="M71.8333 69.5835C68.75 69.6251 65.6666 69.0001 62.875 67.7085C60.25 66.5001 58.0833 64.5001 56.5833 62.0418C55.0416 59.5001 54.2916 56.3335 54.2916 52.5418C54.25 49.4585 55.0416 46.4168 56.5833 43.7501C58.1666 41.0418 60.4583 38.7918 63.2083 37.2918C66.125 35.6668 69.625 34.8751 73.75 34.8751C73.9583 34.8751 74.25 34.8751 74.625 34.9168C75 34.9585 75.4166 34.9585 75.9166 35.0001V21.8335C75.9166 21.5418 76.0416 21.3751 76.3333 21.3751H84.7916C85 21.3335 85.1666 21.5001 85.2083 21.6668C85.2083 21.7085 85.2083 21.7501 85.2083 21.7501V61.4168C85.2083 62.1668 85.25 63.0001 85.2916 63.9168C85.375 64.7918 85.4166 65.6251 85.4583 66.3335C85.4583 66.6251 85.3333 66.8751 85.0416 67.0001C82.875 67.9168 80.5833 68.5835 78.25 69.0001C76.125 69.3751 74 69.5835 71.8333 69.5835ZM75.9166 61.2501V42.9168C75.5416 42.8335 75.1666 42.7501 74.7916 42.7085C74.3333 42.6668 73.875 42.6251 73.4166 42.6251C71.7916 42.6251 70.1666 42.9585 68.7083 43.7085C67.2916 44.4168 66.0833 45.4585 65.1666 46.7918C64.25 48.1251 63.7916 49.9168 63.7916 52.0835C63.75 53.5418 64 55.0001 64.5 56.3751C64.9166 57.5001 65.5416 58.5001 66.375 59.3335C67.1666 60.0835 68.125 60.6668 69.2083 61.0001C70.3333 61.3751 71.5 61.5418 72.6666 61.5418C73.2916 61.5418 73.875 61.5001 74.4166 61.4585C74.9583 61.5001 75.4166 61.4168 75.9166 61.2501Z" fill="#FF61F6"/>
</svg>
