<?xml version="1.0" encoding="UTF-8"?>
<svg xmlns="http://www.w3.org/2000/svg" xmlns:xlink="http://www.w3.org/1999/xlink" width="55px" height="55px" viewBox="0 0 55 55" version="1.1">
<g id="surface1">
<path style=" stroke:none;fill-rule:nonzero;fill:rgb(14.901961%,64.313728%,89.019608%);fill-opacity:1;" d="M 27.027344 -0.00390625 C 27.066406 -0.00390625 27.101562 -0.00390625 27.136719 -0.00390625 C 27.242188 -0.00390625 27.347656 -0.00390625 27.453125 -0.00390625 C 27.480469 -0.00390625 27.511719 -0.00390625 27.539062 -0.00390625 C 28.113281 -0.00390625 28.6875 0 29.257812 0.0390625 C 29.304688 0.0429688 29.351562 0.046875 29.398438 0.0507812 C 30.863281 0.148438 32.320312 0.359375 34.03125 0.761719 C 34.074219 0.773438 34.121094 0.785156 34.164062 0.796875 C 34.792969 0.949219 35.417969 1.132812 36.035156 1.332031 C 36.046875 1.335938 36.058594 1.339844 36.066406 1.34375 C 37.21875 1.714844 38.339844 2.167969 39.429688 2.691406 C 39.460938 2.707031 39.492188 2.722656 39.523438 2.738281 C 39.742188 2.839844 39.957031 2.945312 40.167969 3.0625 C 40.210938 3.082031 40.25 3.101562 40.289062 3.121094 C 40.464844 3.214844 40.636719 3.304688 40.808594 3.402344 C 40.867188 3.4375 40.925781 3.46875 40.984375 3.503906 C 41.1875 3.613281 41.390625 3.734375 41.589844 3.855469 C 41.660156 3.898438 41.734375 3.941406 41.804688 3.984375 C 42.289062 4.265625 42.753906 4.578125 43.210938 4.898438 C 43.222656 4.90625 43.230469 4.910156 43.242188 4.917969 C 43.566406 5.144531 43.886719 5.378906 44.203125 5.621094 C 44.226562 5.640625 44.253906 5.660156 44.277344 5.679688 C 44.460938 5.820312 44.640625 5.960938 44.816406 6.105469 C 44.84375 6.128906 44.875 6.152344 44.902344 6.175781 C 45.003906 6.257812 45.105469 6.34375 45.203125 6.425781 C 45.253906 6.472656 45.304688 6.511719 45.355469 6.554688 C 45.417969 6.605469 45.480469 6.660156 45.539062 6.714844 C 45.574219 6.746094 45.613281 6.777344 45.648438 6.804688 C 45.730469 6.871094 45.804688 6.941406 45.878906 7.011719 C 45.933594 7.0625 45.992188 7.117188 46.050781 7.164062 C 46.09375 7.203125 46.136719 7.246094 46.179688 7.285156 C 46.261719 7.359375 46.261719 7.359375 46.339844 7.4375 C 46.433594 7.519531 46.519531 7.605469 46.609375 7.691406 C 46.636719 7.722656 46.667969 7.75 46.703125 7.78125 C 46.765625 7.835938 46.824219 7.890625 46.882812 7.949219 C 46.890625 7.960938 46.902344 7.972656 46.914062 7.984375 C 46.9375 8.003906 46.960938 8.027344 46.980469 8.050781 C 47.015625 8.085938 47.050781 8.117188 47.085938 8.152344 C 47.105469 8.175781 47.128906 8.195312 47.148438 8.21875 C 47.160156 8.230469 47.171875 8.238281 47.179688 8.25 C 47.238281 8.304688 47.292969 8.363281 47.34375 8.425781 C 47.382812 8.46875 47.425781 8.507812 47.464844 8.550781 C 47.527344 8.613281 47.589844 8.675781 47.644531 8.742188 C 47.667969 8.765625 47.691406 8.792969 47.71875 8.816406 C 47.757812 8.859375 47.796875 8.902344 47.835938 8.945312 C 47.875 8.988281 47.914062 9.03125 47.953125 9.074219 C 48.03125 9.15625 48.105469 9.242188 48.179688 9.328125 C 48.195312 9.34375 48.207031 9.363281 48.222656 9.378906 C 48.230469 9.386719 48.238281 9.398438 48.246094 9.40625 C 48.289062 9.457031 48.332031 9.507812 48.378906 9.554688 C 48.433594 9.617188 48.484375 9.675781 48.535156 9.738281 C 48.574219 9.789062 48.613281 9.832031 48.652344 9.878906 C 48.714844 9.953125 48.777344 10.027344 48.835938 10.105469 C 48.890625 10.171875 48.941406 10.238281 48.996094 10.300781 C 49.078125 10.402344 49.160156 10.503906 49.238281 10.609375 C 49.277344 10.660156 49.320312 10.714844 49.359375 10.765625 C 49.460938 10.898438 49.5625 11.03125 49.660156 11.167969 C 49.6875 11.199219 49.710938 11.234375 49.734375 11.269531 C 49.84375 11.414062 49.953125 11.5625 50.054688 11.714844 C 50.082031 11.75 50.105469 11.785156 50.132812 11.820312 C 50.25 11.992188 50.367188 12.164062 50.480469 12.335938 C 50.5 12.363281 50.515625 12.390625 50.53125 12.414062 C 50.800781 12.824219 51.058594 13.242188 51.304688 13.664062 C 51.3125 13.679688 51.320312 13.691406 51.328125 13.707031 C 51.527344 14.046875 51.71875 14.386719 51.898438 14.734375 C 51.914062 14.769531 51.933594 14.804688 51.953125 14.839844 C 52.039062 15.003906 52.121094 15.167969 52.203125 15.332031 C 52.210938 15.34375 52.214844 15.355469 52.222656 15.371094 C 52.328125 15.578125 52.429688 15.789062 52.523438 16 C 52.539062 16.027344 52.550781 16.058594 52.5625 16.085938 C 52.910156 16.847656 53.21875 17.621094 53.496094 18.40625 C 53.503906 18.421875 53.503906 18.421875 53.507812 18.441406 C 53.964844 19.726562 54.3125 21.058594 54.9375 25.175781 C 54.941406 25.21875 54.945312 25.265625 54.949219 25.308594 C 55.011719 25.996094 55.007812 26.679688 55.007812 27.371094 C 55.007812 27.480469 55.007812 27.59375 55.007812 27.707031 C 55.007812 28.394531 55.011719 29.078125 54.945312 29.761719 C 54.941406 29.808594 54.9375 29.855469 54.933594 29.90625 C 54.800781 31.453125 54.535156 32.992188 54.027344 34.933594 C 54.019531 34.953125 54.019531 34.953125 54.015625 34.976562 C 53.8125 35.691406 53.585938 36.402344 53.324219 37.097656 C 53.320312 37.109375 53.316406 37.117188 53.3125 37.128906 C 53.011719 37.933594 52.675781 38.71875 52.300781 39.488281 C 52.28125 39.527344 52.261719 39.570312 52.242188 39.609375 C 52.074219 39.96875 51.890625 40.320312 51.699219 40.667969 C 51.675781 40.710938 51.648438 40.753906 51.625 40.796875 C 51.515625 40.996094 51.40625 41.195312 51.289062 41.386719 C 51.269531 41.421875 51.25 41.457031 51.230469 41.492188 C 51.09375 41.722656 50.957031 41.949219 50.8125 42.175781 C 50.789062 42.207031 50.769531 42.242188 50.746094 42.277344 C 50.628906 42.464844 50.503906 42.648438 50.382812 42.835938 C 50.371094 42.847656 50.363281 42.859375 50.355469 42.875 C 50.167969 43.148438 49.980469 43.417969 49.785156 43.683594 C 49.777344 43.695312 49.769531 43.707031 49.761719 43.71875 C 49.628906 43.898438 49.492188 44.078125 49.355469 44.257812 C 49.34375 44.277344 49.328125 44.292969 49.316406 44.3125 C 49.175781 44.492188 49.035156 44.671875 48.890625 44.847656 C 48.871094 44.871094 48.855469 44.894531 48.835938 44.917969 C 48.769531 44.996094 48.707031 45.070312 48.640625 45.148438 C 48.601562 45.199219 48.558594 45.25 48.515625 45.300781 C 48.464844 45.363281 48.414062 45.421875 48.359375 45.480469 C 48.324219 45.519531 48.296875 45.554688 48.265625 45.59375 C 48.195312 45.679688 48.117188 45.761719 48.042969 45.839844 C 48 45.886719 47.960938 45.929688 47.921875 45.976562 C 47.867188 46.035156 47.8125 46.09375 47.757812 46.15625 C 47.738281 46.175781 47.71875 46.199219 47.695312 46.222656 C 47.632812 46.292969 47.570312 46.359375 47.503906 46.425781 C 47.480469 46.449219 47.460938 46.472656 47.441406 46.496094 C 47.355469 46.59375 47.265625 46.679688 47.175781 46.769531 C 47.15625 46.789062 47.136719 46.808594 47.117188 46.828125 C 47.078125 46.871094 47.035156 46.910156 46.992188 46.953125 C 46.941406 47.003906 46.886719 47.058594 46.835938 47.109375 C 46.792969 47.152344 46.753906 47.191406 46.710938 47.234375 C 46.691406 47.253906 46.671875 47.273438 46.652344 47.292969 C 46.46875 47.476562 46.46875 47.476562 46.382812 47.546875 C 46.355469 47.574219 46.328125 47.601562 46.296875 47.632812 C 46.253906 47.679688 46.203125 47.722656 46.152344 47.765625 C 46.109375 47.804688 46.0625 47.847656 46.019531 47.890625 C 45.957031 47.945312 45.894531 48.003906 45.832031 48.058594 C 45.800781 48.085938 45.769531 48.117188 45.734375 48.144531 C 45.6875 48.191406 45.636719 48.234375 45.582031 48.273438 C 45.527344 48.320312 45.476562 48.363281 45.425781 48.410156 C 45.363281 48.46875 45.296875 48.523438 45.230469 48.578125 C 45.183594 48.617188 45.136719 48.65625 45.085938 48.699219 C 45.019531 48.757812 44.953125 48.8125 44.882812 48.867188 C 44.84375 48.898438 44.804688 48.933594 44.761719 48.964844 C 44.667969 49.042969 44.574219 49.117188 44.480469 49.191406 C 44.441406 49.21875 44.40625 49.246094 44.371094 49.273438 C 44.226562 49.386719 44.082031 49.496094 43.933594 49.605469 C 43.886719 49.636719 43.84375 49.671875 43.796875 49.703125 C 43.695312 49.777344 43.597656 49.851562 43.496094 49.925781 C 43.488281 49.933594 43.476562 49.9375 43.46875 49.945312 C 43.070312 50.234375 42.660156 50.507812 42.246094 50.765625 C 42.207031 50.789062 42.167969 50.816406 42.128906 50.839844 C 41.902344 50.984375 41.667969 51.121094 41.433594 51.261719 C 41.394531 51.285156 41.355469 51.308594 41.316406 51.328125 C 41.097656 51.460938 40.871094 51.582031 40.648438 51.707031 C 40.632812 51.714844 40.617188 51.722656 40.601562 51.730469 C 40.011719 52.050781 39.414062 52.351562 38.800781 52.625 C 38.773438 52.636719 38.742188 52.648438 38.714844 52.664062 C 38.207031 52.890625 37.691406 53.101562 37.167969 53.296875 C 37.15625 53.300781 37.144531 53.304688 37.132812 53.308594 C 36.269531 53.628906 35.394531 53.90625 34.503906 54.140625 C 34.488281 54.144531 34.476562 54.148438 34.460938 54.152344 C 33.03125 54.523438 31.566406 54.785156 29.855469 54.9375 C 29.808594 54.941406 29.765625 54.945312 29.71875 54.949219 C 29.03125 55.011719 28.339844 55.007812 27.648438 55.007812 C 27.539062 55.007812 27.425781 55.007812 27.3125 55.007812 C 26.628906 55.007812 25.945312 55.007812 25.261719 54.945312 C 25.203125 54.941406 25.144531 54.9375 25.085938 54.929688 C 24.984375 54.921875 24.878906 54.914062 24.773438 54.902344 C 24.746094 54.898438 24.746094 54.898438 24.71875 54.898438 C 23.832031 54.808594 22.949219 54.671875 22.070312 54.5 C 22.058594 54.496094 22.042969 54.492188 22.027344 54.488281 C 20.703125 54.226562 19.402344 53.855469 15.96875 52.507812 C 15.941406 52.492188 15.914062 52.480469 15.882812 52.46875 C 15.429688 52.257812 14.976562 52.039062 14.542969 51.796875 C 14.484375 51.765625 14.429688 51.734375 14.375 51.707031 C 14.214844 51.625 14.0625 51.535156 13.90625 51.449219 C 13.886719 51.433594 13.886719 51.433594 13.863281 51.421875 C 13.5 51.214844 13.144531 50.996094 12.789062 50.773438 C 12.777344 50.765625 12.761719 50.757812 12.75 50.75 C 12.273438 50.449219 11.8125 50.132812 11.359375 49.800781 C 11.34375 49.789062 11.34375 49.789062 11.324219 49.777344 C 11.15625 49.652344 10.988281 49.527344 10.820312 49.398438 C 10.789062 49.371094 10.753906 49.347656 10.71875 49.320312 C 10.609375 49.238281 10.503906 49.152344 10.394531 49.066406 C 10.335938 49.015625 10.273438 48.96875 10.210938 48.917969 C 10.128906 48.855469 10.046875 48.789062 9.96875 48.722656 C 9.929688 48.6875 9.890625 48.652344 9.847656 48.621094 C 9.761719 48.550781 9.675781 48.476562 9.59375 48.40625 C 9.566406 48.382812 9.542969 48.359375 9.515625 48.339844 C 9.421875 48.257812 9.324219 48.175781 9.234375 48.089844 C 9.203125 48.058594 9.171875 48.03125 9.136719 48.003906 C 9.066406 47.941406 9 47.878906 8.929688 47.816406 C 8.894531 47.785156 8.859375 47.75 8.824219 47.71875 C 8.535156 47.453125 8.535156 47.453125 8.402344 47.316406 C 8.375 47.289062 8.34375 47.261719 8.3125 47.234375 C 8.25 47.179688 8.191406 47.121094 8.132812 47.0625 C 8.117188 47.046875 8.117188 47.046875 8.101562 47.03125 C 8.078125 47.007812 8.054688 46.988281 8.03125 46.964844 C 8 46.929688 7.964844 46.894531 7.929688 46.863281 C 7.90625 46.839844 7.886719 46.816406 7.863281 46.796875 C 7.847656 46.78125 7.847656 46.78125 7.832031 46.765625 C 7.777344 46.707031 7.722656 46.652344 7.671875 46.589844 C 7.632812 46.546875 7.589844 46.503906 7.546875 46.464844 C 7.488281 46.402344 7.429688 46.34375 7.375 46.277344 C 7.328125 46.226562 7.28125 46.179688 7.234375 46.128906 C 7.113281 46 6.996094 45.871094 6.882812 45.738281 C 6.835938 45.683594 6.789062 45.632812 6.742188 45.578125 C 6.6875 45.519531 6.632812 45.453125 6.582031 45.390625 C 6.539062 45.339844 6.496094 45.289062 6.453125 45.238281 C 6.375 45.152344 6.304688 45.0625 6.230469 44.972656 C 6.210938 44.949219 6.191406 44.925781 6.167969 44.898438 C 6.148438 44.871094 6.125 44.84375 6.101562 44.816406 C 6.09375 44.808594 6.085938 44.800781 6.078125 44.789062 C 5.976562 44.660156 5.871094 44.53125 5.773438 44.402344 C 5.75 44.371094 5.726562 44.34375 5.707031 44.316406 C 5.679688 44.28125 5.65625 44.25 5.628906 44.214844 C 5.617188 44.199219 5.617188 44.199219 5.601562 44.179688 C 5.492188 44.035156 5.378906 43.890625 5.273438 43.738281 C 5.238281 43.6875 5.203125 43.636719 5.164062 43.585938 C 4.863281 43.171875 4.574219 42.742188 4.296875 42.308594 C 4.289062 42.296875 4.289062 42.296875 4.277344 42.28125 C 3.929688 41.738281 3.609375 41.183594 3.300781 40.617188 C 3.277344 40.574219 3.253906 40.53125 3.230469 40.488281 C 3.125 40.292969 3.023438 40.097656 2.925781 39.898438 C 2.90625 39.855469 2.882812 39.8125 2.863281 39.773438 C 2.855469 39.753906 2.847656 39.738281 2.835938 39.71875 C 2.808594 39.664062 2.78125 39.613281 2.753906 39.558594 C 2.640625 39.332031 2.535156 39.105469 2.433594 38.875 C 2.40625 38.820312 2.382812 38.765625 2.359375 38.710938 C 1.761719 37.398438 1.289062 36.027344 0.0585938 29.539062 C 0.0585938 29.527344 0.0585938 29.515625 0.0546875 29.503906 C 0.0078125 28.851562 -0.00390625 28.203125 -0.00390625 27.550781 C -0.00390625 27.511719 -0.00390625 27.472656 -0.00390625 27.433594 C -0.00390625 26.878906 0 26.324219 0.0390625 25.769531 C 0.0429688 25.722656 0.046875 25.675781 0.0507812 25.628906 C 0.132812 24.351562 0.3125 23.082031 0.574219 21.828125 C 0.574219 21.8125 0.578125 21.800781 0.582031 21.785156 C 0.738281 21.042969 0.925781 20.304688 1.144531 19.578125 C 1.148438 19.566406 1.152344 19.550781 1.160156 19.539062 C 1.527344 18.3125 1.984375 17.117188 2.523438 15.957031 C 2.535156 15.925781 2.546875 15.898438 2.5625 15.867188 C 2.757812 15.445312 2.957031 15.027344 3.183594 14.621094 C 3.226562 14.546875 3.261719 14.476562 3.300781 14.402344 C 3.386719 14.238281 3.476562 14.082031 3.566406 13.921875 C 3.574219 13.90625 3.582031 13.890625 3.59375 13.875 C 3.710938 13.671875 3.828125 13.464844 3.953125 13.261719 C 3.960938 13.25 3.96875 13.234375 3.980469 13.21875 C 4.089844 13.039062 4.203125 12.859375 4.316406 12.683594 C 4.371094 12.601562 4.421875 12.523438 4.472656 12.441406 C 4.570312 12.289062 4.671875 12.140625 4.773438 11.992188 C 4.808594 11.941406 4.84375 11.894531 4.878906 11.84375 C 4.960938 11.722656 5.042969 11.605469 5.128906 11.488281 C 5.136719 11.476562 5.140625 11.464844 5.148438 11.457031 C 5.269531 11.289062 5.394531 11.125 5.519531 10.960938 C 5.550781 10.917969 5.582031 10.878906 5.613281 10.835938 C 5.726562 10.679688 5.847656 10.53125 5.96875 10.378906 C 5.992188 10.347656 6.019531 10.3125 6.046875 10.28125 C 6.097656 10.21875 6.148438 10.15625 6.199219 10.09375 C 6.21875 10.070312 6.238281 10.042969 6.261719 10.015625 C 6.328125 9.933594 6.398438 9.851562 6.46875 9.769531 C 6.511719 9.71875 6.554688 9.667969 6.597656 9.617188 C 6.648438 9.550781 6.703125 9.492188 6.757812 9.429688 C 6.804688 9.382812 6.84375 9.335938 6.886719 9.285156 C 6.929688 9.230469 6.972656 9.179688 7.023438 9.132812 C 7.058594 9.097656 7.085938 9.0625 7.117188 9.027344 C 7.171875 8.964844 7.226562 8.90625 7.28125 8.847656 C 7.304688 8.820312 7.328125 8.796875 7.347656 8.773438 C 7.414062 8.703125 7.484375 8.628906 7.554688 8.5625 C 7.574219 8.539062 7.597656 8.511719 7.617188 8.488281 C 7.695312 8.398438 7.78125 8.316406 7.863281 8.234375 C 7.882812 8.214844 7.902344 8.195312 7.917969 8.179688 C 7.957031 8.140625 7.996094 8.101562 8.035156 8.0625 C 8.082031 8.015625 8.128906 7.96875 8.179688 7.917969 C 8.214844 7.878906 8.253906 7.84375 8.292969 7.804688 C 8.308594 7.789062 8.328125 7.769531 8.34375 7.753906 C 8.511719 7.582031 8.511719 7.582031 8.601562 7.507812 C 8.632812 7.484375 8.660156 7.457031 8.6875 7.425781 C 8.734375 7.378906 8.78125 7.335938 8.832031 7.292969 C 8.878906 7.25 8.925781 7.207031 8.972656 7.160156 C 9.039062 7.101562 9.101562 7.042969 9.167969 6.984375 C 9.203125 6.957031 9.234375 6.925781 9.265625 6.894531 C 9.492188 6.695312 9.71875 6.5 9.953125 6.308594 C 9.988281 6.28125 10.019531 6.253906 10.054688 6.226562 C 10.175781 6.128906 10.292969 6.03125 10.417969 5.933594 C 10.449219 5.910156 10.480469 5.882812 10.511719 5.859375 C 10.546875 5.832031 10.582031 5.804688 10.613281 5.78125 C 10.632812 5.765625 10.652344 5.75 10.671875 5.734375 C 10.824219 5.613281 10.980469 5.496094 11.136719 5.382812 C 11.171875 5.355469 11.207031 5.332031 11.238281 5.304688 C 11.390625 5.195312 11.539062 5.085938 11.695312 4.980469 C 11.730469 4.953125 11.769531 4.929688 11.804688 4.902344 C 11.933594 4.8125 12.058594 4.726562 12.1875 4.640625 C 12.203125 4.628906 12.222656 4.621094 12.238281 4.609375 C 12.707031 4.292969 13.1875 3.996094 13.679688 3.710938 C 13.691406 3.703125 13.707031 3.691406 13.722656 3.683594 C 14.085938 3.472656 14.457031 3.265625 14.835938 3.074219 C 14.898438 3.042969 14.957031 3.011719 15.019531 2.976562 C 15.300781 2.828125 15.585938 2.691406 15.875 2.558594 C 15.929688 2.53125 15.984375 2.507812 16.039062 2.480469 C 17.273438 1.90625 18.558594 1.4375 25.90625 0.03125 C 25.921875 0.03125 25.9375 0.03125 25.953125 0.03125 C 26.3125 0.0078125 26.667969 -0.00390625 27.027344 -0.00390625 Z M 27.027344 -0.00390625 "/>
<path style=" stroke:none;fill-rule:nonzero;fill:rgb(99.607843%,99.607843%,99.607843%);fill-opacity:1;" d="M 39.792969 16.839844 C 39.835938 16.875 39.878906 16.917969 39.917969 16.957031 C 39.929688 16.96875 39.929688 16.96875 39.945312 16.984375 C 40.070312 17.117188 40.132812 17.300781 40.175781 17.472656 C 40.179688 17.488281 40.183594 17.5 40.1875 17.511719 C 40.316406 18.007812 40.28125 18.546875 40.222656 19.050781 C 40.214844 19.101562 40.210938 19.148438 40.207031 19.199219 C 40.179688 19.449219 40.148438 19.699219 40.117188 19.945312 C 40.097656 20.109375 40.078125 20.273438 40.058594 20.4375 C 40.035156 20.660156 40.003906 20.878906 39.972656 21.097656 C 39.953125 21.257812 39.929688 21.421875 39.910156 21.582031 C 39.878906 21.835938 39.84375 22.085938 39.808594 22.339844 C 39.777344 22.527344 39.753906 22.714844 39.726562 22.902344 C 39.726562 22.914062 39.722656 22.925781 39.722656 22.933594 C 39.707031 23.039062 39.691406 23.144531 39.679688 23.25 C 39.675781 23.28125 39.671875 23.308594 39.667969 23.339844 C 39.660156 23.375 39.65625 23.410156 39.652344 23.449219 C 39.640625 23.535156 39.625 23.625 39.609375 23.710938 C 39.601562 23.757812 39.59375 23.804688 39.589844 23.851562 C 39.585938 23.871094 39.582031 23.886719 39.582031 23.90625 C 39.578125 23.925781 39.578125 23.941406 39.574219 23.960938 C 39.558594 24.074219 39.542969 24.1875 39.523438 24.300781 C 39.511719 24.351562 39.503906 24.40625 39.5 24.457031 C 39.496094 24.484375 39.492188 24.507812 39.488281 24.53125 C 39.484375 24.546875 39.484375 24.558594 39.480469 24.574219 C 39.472656 24.628906 39.464844 24.679688 39.457031 24.734375 C 39.449219 24.773438 39.445312 24.816406 39.4375 24.855469 C 39.4375 24.867188 39.433594 24.875 39.433594 24.886719 C 39.414062 25.011719 39.394531 25.140625 39.378906 25.265625 C 39.367188 25.351562 39.355469 25.4375 39.335938 25.523438 C 39.320312 25.613281 39.308594 25.703125 39.296875 25.796875 C 39.28125 25.921875 39.261719 26.046875 39.238281 26.171875 C 39.21875 26.257812 39.207031 26.347656 39.195312 26.433594 C 39.183594 26.503906 39.171875 26.574219 39.160156 26.640625 C 39.148438 26.703125 39.140625 26.765625 39.132812 26.828125 C 39.113281 26.96875 39.089844 27.109375 39.066406 27.253906 C 39.050781 27.339844 39.035156 27.425781 39.023438 27.515625 C 39.019531 27.53125 39.015625 27.550781 39.011719 27.566406 C 38.984375 27.738281 38.957031 27.90625 38.929688 28.078125 C 38.925781 28.109375 38.921875 28.136719 38.917969 28.167969 C 38.886719 28.359375 38.886719 28.359375 38.859375 28.550781 C 38.839844 28.683594 38.816406 28.8125 38.792969 28.945312 C 38.761719 29.128906 38.730469 29.3125 38.699219 29.496094 C 38.632812 29.902344 38.566406 30.3125 38.5 30.722656 C 38.480469 30.835938 38.460938 30.953125 38.441406 31.070312 C 38.425781 31.164062 38.410156 31.253906 38.394531 31.347656 C 38.386719 31.398438 38.378906 31.453125 38.371094 31.507812 C 38.328125 31.753906 38.285156 32.003906 38.242188 32.25 C 38.214844 32.402344 38.191406 32.554688 38.164062 32.707031 C 38.125 32.957031 38.082031 33.207031 38.035156 33.457031 C 37.996094 33.679688 37.957031 33.902344 37.921875 34.125 C 37.878906 34.371094 37.835938 34.613281 37.792969 34.859375 C 37.75 35.074219 37.714844 35.289062 37.675781 35.507812 C 37.636719 35.746094 37.59375 35.984375 37.546875 36.226562 C 37.507812 36.4375 37.46875 36.648438 37.433594 36.859375 C 37.382812 37.144531 37.328125 37.429688 37.273438 37.714844 C 37.25 37.847656 37.226562 37.976562 37.203125 38.109375 C 37.195312 38.148438 37.1875 38.1875 37.179688 38.226562 C 37.175781 38.242188 37.175781 38.253906 37.171875 38.265625 C 37.167969 38.289062 37.164062 38.316406 37.160156 38.339844 C 37.148438 38.394531 37.136719 38.445312 37.128906 38.5 C 36.964844 39.394531 36.671875 40.507812 35.882812 41.058594 C 35.457031 41.34375 34.921875 41.339844 34.4375 41.246094 C 33.726562 41.097656 33.09375 40.738281 32.5 40.332031 C 32.476562 40.316406 32.453125 40.300781 32.429688 40.289062 C 32.289062 40.191406 32.152344 40.09375 32.011719 39.996094 C 31.984375 39.976562 31.953125 39.953125 31.921875 39.933594 C 31.828125 39.867188 31.738281 39.800781 31.644531 39.734375 C 31.261719 39.457031 30.867188 39.199219 30.472656 38.941406 C 30.464844 38.933594 30.453125 38.929688 30.445312 38.921875 C 30.40625 38.898438 30.367188 38.875 30.328125 38.847656 C 29.90625 38.570312 29.484375 38.289062 29.0625 38.003906 C 28.992188 37.957031 28.917969 37.90625 28.847656 37.859375 C 28.613281 37.699219 28.378906 37.542969 28.144531 37.382812 C 28.097656 37.351562 28.054688 37.320312 28.007812 37.292969 C 27.863281 37.191406 27.71875 37.09375 27.570312 36.992188 C 26.878906 36.515625 26.179688 36.042969 25.480469 35.578125 C 25.46875 35.570312 25.460938 35.5625 25.449219 35.554688 C 25.335938 35.480469 25.21875 35.402344 25.105469 35.328125 C 25.050781 35.292969 24.996094 35.253906 24.941406 35.21875 C 24.914062 35.203125 24.890625 35.183594 24.863281 35.167969 C 24.261719 34.769531 23.570312 34.304688 23.359375 33.574219 C 23.289062 33.179688 23.410156 32.832031 23.628906 32.511719 C 23.84375 32.203125 24.109375 31.933594 24.375 31.667969 C 24.386719 31.660156 24.394531 31.648438 24.402344 31.640625 C 24.574219 31.46875 24.574219 31.46875 24.664062 31.390625 C 24.722656 31.339844 24.777344 31.285156 24.828125 31.230469 C 24.851562 31.207031 24.875 31.183594 24.898438 31.160156 C 24.910156 31.152344 24.917969 31.140625 24.929688 31.128906 C 24.957031 31.101562 24.988281 31.074219 25.019531 31.046875 C 25.078125 30.996094 25.136719 30.9375 25.191406 30.882812 C 25.203125 30.871094 25.214844 30.859375 25.222656 30.851562 C 25.257812 30.816406 25.289062 30.785156 25.324219 30.75 C 25.367188 30.707031 25.410156 30.664062 25.453125 30.621094 C 25.460938 30.609375 25.472656 30.601562 25.480469 30.589844 C 25.539062 30.535156 25.597656 30.480469 25.65625 30.429688 C 25.683594 30.402344 25.710938 30.378906 25.738281 30.351562 C 25.78125 30.304688 25.832031 30.261719 25.878906 30.21875 C 25.925781 30.175781 25.972656 30.132812 26.019531 30.089844 C 26.039062 30.070312 26.0625 30.050781 26.082031 30.03125 C 26.089844 30.023438 26.101562 30.015625 26.109375 30.003906 C 26.152344 29.964844 26.191406 29.929688 26.234375 29.890625 C 26.300781 29.828125 26.367188 29.769531 26.433594 29.707031 C 26.5 29.644531 26.566406 29.582031 26.632812 29.519531 C 26.710938 29.445312 26.792969 29.371094 26.871094 29.296875 C 26.9375 29.234375 27.003906 29.175781 27.070312 29.113281 C 27.132812 29.054688 27.195312 28.996094 27.257812 28.9375 C 27.332031 28.867188 27.410156 28.796875 27.488281 28.726562 C 27.558594 28.660156 27.628906 28.59375 27.703125 28.523438 C 27.761719 28.46875 27.820312 28.414062 27.878906 28.359375 C 27.980469 28.265625 28.082031 28.167969 28.183594 28.074219 C 28.296875 27.964844 28.410156 27.859375 28.527344 27.753906 C 28.613281 27.671875 28.703125 27.589844 28.789062 27.507812 C 28.804688 27.492188 28.804688 27.492188 28.820312 27.480469 C 28.867188 27.4375 28.914062 27.390625 28.957031 27.347656 C 28.992188 27.3125 29.023438 27.28125 29.058594 27.25 C 29.101562 27.214844 29.144531 27.175781 29.183594 27.132812 C 29.222656 27.09375 29.261719 27.058594 29.304688 27.023438 C 29.351562 26.980469 29.394531 26.9375 29.441406 26.890625 C 29.484375 26.847656 29.527344 26.804688 29.574219 26.761719 C 29.625 26.71875 29.671875 26.671875 29.71875 26.625 C 29.765625 26.582031 29.8125 26.535156 29.859375 26.492188 C 29.929688 26.433594 29.992188 26.371094 30.054688 26.304688 C 30.097656 26.261719 30.144531 26.21875 30.191406 26.175781 C 30.253906 26.125 30.308594 26.066406 30.363281 26.011719 C 30.417969 25.953125 30.472656 25.898438 30.53125 25.851562 C 30.617188 25.777344 30.695312 25.695312 30.773438 25.617188 C 30.804688 25.585938 30.835938 25.554688 30.867188 25.523438 C 30.875 25.515625 30.878906 25.507812 30.886719 25.5 C 30.925781 25.460938 30.964844 25.425781 31.003906 25.390625 C 31.066406 25.335938 31.125 25.28125 31.183594 25.222656 C 31.195312 25.210938 31.207031 25.199219 31.21875 25.1875 C 31.253906 25.152344 31.292969 25.113281 31.328125 25.078125 C 31.351562 25.050781 31.378906 25.027344 31.40625 25 C 31.457031 24.949219 31.511719 24.894531 31.566406 24.839844 C 31.625 24.777344 31.6875 24.71875 31.75 24.65625 C 31.808594 24.597656 31.871094 24.535156 31.929688 24.476562 C 31.953125 24.453125 31.980469 24.425781 32.003906 24.402344 C 32.039062 24.367188 32.074219 24.332031 32.109375 24.296875 C 32.125 24.28125 32.125 24.28125 32.140625 24.265625 C 32.199219 24.207031 32.253906 24.148438 32.304688 24.085938 C 32.332031 24.058594 32.355469 24.03125 32.382812 24.003906 C 32.429688 23.960938 32.472656 23.914062 32.515625 23.863281 C 32.546875 23.828125 32.578125 23.792969 32.609375 23.761719 C 32.6875 23.675781 32.757812 23.589844 32.824219 23.5 C 32.839844 23.476562 32.855469 23.457031 32.871094 23.4375 C 32.949219 23.332031 32.941406 23.214844 32.929688 23.089844 C 32.90625 22.964844 32.84375 22.878906 32.742188 22.804688 C 32.605469 22.722656 32.417969 22.75 32.269531 22.785156 C 31.917969 22.882812 31.582031 23.167969 31.28125 23.363281 C 31.226562 23.398438 31.171875 23.429688 31.117188 23.464844 C 30.957031 23.566406 30.796875 23.671875 30.636719 23.777344 C 30.59375 23.804688 30.546875 23.835938 30.5 23.863281 C 30.238281 24.039062 29.972656 24.210938 29.707031 24.386719 C 29.628906 24.4375 29.550781 24.488281 29.472656 24.539062 C 29.1875 24.730469 28.898438 24.917969 28.613281 25.113281 C 28.421875 25.242188 28.226562 25.375 28.03125 25.5 C 27.789062 25.660156 27.550781 25.820312 27.3125 25.980469 C 27.289062 25.996094 27.265625 26.011719 27.242188 26.027344 C 27.230469 26.035156 27.21875 26.046875 27.207031 26.054688 C 27.109375 26.121094 27.007812 26.183594 26.910156 26.25 C 26.789062 26.332031 26.667969 26.414062 26.546875 26.496094 C 26.324219 26.644531 26.105469 26.792969 25.882812 26.941406 C 25.664062 27.085938 25.445312 27.234375 25.226562 27.382812 C 25.054688 27.496094 24.882812 27.613281 24.710938 27.726562 C 24.566406 27.820312 24.421875 27.917969 24.28125 28.015625 C 24.132812 28.117188 23.984375 28.21875 23.832031 28.320312 C 23.820312 28.328125 23.808594 28.335938 23.792969 28.347656 C 23.605469 28.472656 23.421875 28.597656 23.234375 28.71875 C 23.101562 28.808594 22.96875 28.898438 22.839844 28.992188 C 22.734375 29.0625 22.625 29.136719 22.519531 29.207031 C 22.339844 29.328125 22.160156 29.445312 21.980469 29.566406 C 21.960938 29.582031 21.960938 29.582031 21.941406 29.59375 C 21.78125 29.703125 21.617188 29.8125 21.457031 29.921875 C 21.375 29.976562 21.296875 30.03125 21.21875 30.082031 C 21.195312 30.101562 21.171875 30.117188 21.144531 30.132812 C 21.066406 30.1875 20.984375 30.242188 20.902344 30.296875 C 20.878906 30.3125 20.851562 30.332031 20.824219 30.347656 C 20.339844 30.675781 20.339844 30.675781 20.125 30.804688 C 20.109375 30.8125 20.097656 30.820312 20.085938 30.828125 C 20.046875 30.847656 20.003906 30.871094 19.964844 30.894531 C 19.953125 30.902344 19.941406 30.910156 19.929688 30.914062 C 19.554688 31.132812 19.152344 31.304688 18.734375 31.425781 C 18.71875 31.429688 18.71875 31.429688 18.703125 31.433594 C 18.050781 31.628906 17.386719 31.585938 16.726562 31.460938 C 16.683594 31.453125 16.640625 31.445312 16.601562 31.4375 C 16.371094 31.394531 16.148438 31.34375 15.925781 31.289062 C 15.839844 31.265625 15.753906 31.246094 15.667969 31.226562 C 15.558594 31.203125 15.449219 31.175781 15.34375 31.148438 C 15.304688 31.136719 15.265625 31.125 15.226562 31.113281 C 15.027344 31.0625 14.832031 31.007812 14.636719 30.953125 C 14.625 30.949219 14.609375 30.945312 14.597656 30.941406 C 14.386719 30.878906 14.175781 30.816406 13.964844 30.75 C 13.949219 30.746094 13.933594 30.742188 13.917969 30.738281 C 13.695312 30.667969 13.472656 30.597656 13.25 30.527344 C 13.234375 30.523438 13.222656 30.519531 13.210938 30.515625 C 12.957031 30.433594 12.957031 30.433594 12.832031 30.394531 C 12.820312 30.390625 12.808594 30.382812 12.792969 30.378906 C 12.785156 30.375 12.773438 30.375 12.765625 30.371094 C 12.683594 30.34375 12.605469 30.320312 12.523438 30.296875 C 12.351562 30.25 12.179688 30.191406 12.007812 30.132812 C 11.992188 30.128906 11.976562 30.121094 11.960938 30.117188 C 11.71875 30.035156 11.476562 29.945312 11.242188 29.835938 C 11.230469 29.828125 11.214844 29.820312 11.203125 29.8125 C 11.039062 29.734375 10.886719 29.644531 10.742188 29.535156 C 10.730469 29.527344 10.71875 29.515625 10.710938 29.507812 C 10.5625 29.390625 10.421875 29.195312 10.398438 29.003906 C 10.382812 28.703125 10.382812 28.703125 10.441406 28.574219 C 10.449219 28.5625 10.453125 28.550781 10.460938 28.535156 C 10.707031 28.046875 11.253906 27.769531 11.722656 27.53125 C 11.753906 27.515625 11.785156 27.5 11.816406 27.484375 C 11.992188 27.394531 12.175781 27.316406 12.359375 27.238281 C 12.449219 27.199219 12.539062 27.160156 12.628906 27.121094 C 12.664062 27.109375 12.695312 27.09375 12.726562 27.078125 C 13.183594 26.882812 13.640625 26.683594 14.097656 26.484375 C 14.273438 26.410156 14.449219 26.332031 14.625 26.257812 C 14.882812 26.144531 15.144531 26.03125 15.402344 25.917969 C 15.519531 25.867188 15.632812 25.820312 15.75 25.769531 C 16.066406 25.628906 16.386719 25.492188 16.707031 25.351562 C 16.878906 25.277344 17.054688 25.203125 17.230469 25.125 C 17.398438 25.054688 17.5625 24.980469 17.730469 24.90625 C 18.117188 24.742188 18.503906 24.574219 18.890625 24.40625 C 19.09375 24.316406 19.296875 24.230469 19.5 24.140625 C 19.578125 24.109375 19.660156 24.074219 19.738281 24.039062 C 19.785156 24.019531 19.828125 24 19.875 23.980469 C 19.890625 23.972656 19.910156 23.964844 19.925781 23.957031 C 19.9375 23.953125 19.945312 23.949219 19.953125 23.945312 C 20.035156 23.910156 20.035156 23.910156 20.0625 23.898438 C 20.078125 23.890625 20.097656 23.882812 20.113281 23.875 C 20.160156 23.855469 20.203125 23.835938 20.25 23.816406 C 20.335938 23.777344 20.425781 23.742188 20.515625 23.703125 C 20.722656 23.613281 20.929688 23.523438 21.140625 23.433594 C 21.289062 23.367188 21.4375 23.304688 21.585938 23.238281 C 21.765625 23.160156 21.949219 23.082031 22.132812 23 C 22.234375 22.957031 22.335938 22.914062 22.4375 22.871094 C 22.625 22.789062 22.8125 22.707031 23 22.625 C 23.015625 22.621094 23.027344 22.617188 23.039062 22.609375 C 23.050781 22.605469 23.0625 22.601562 23.078125 22.59375 C 23.300781 22.5 23.523438 22.402344 23.746094 22.304688 C 24.003906 22.195312 24.261719 22.082031 24.515625 21.972656 C 24.660156 21.910156 24.808594 21.847656 24.953125 21.785156 C 25.003906 21.765625 25.054688 21.742188 25.105469 21.71875 C 25.28125 21.644531 25.453125 21.570312 25.625 21.496094 C 26.035156 21.320312 26.449219 21.144531 26.859375 20.972656 C 26.964844 20.925781 27.070312 20.878906 27.175781 20.835938 C 27.523438 20.6875 27.871094 20.542969 28.214844 20.394531 C 28.226562 20.390625 28.238281 20.386719 28.253906 20.378906 C 28.566406 20.25 28.878906 20.117188 29.195312 19.988281 C 29.367188 19.914062 29.542969 19.84375 29.71875 19.769531 C 30.195312 19.570312 30.675781 19.371094 31.152344 19.175781 C 31.257812 19.132812 31.363281 19.089844 31.464844 19.046875 C 31.636719 18.976562 31.808594 18.90625 31.980469 18.835938 C 32.003906 18.828125 32.027344 18.816406 32.046875 18.808594 C 32.492188 18.625 32.941406 18.445312 33.390625 18.265625 C 33.457031 18.238281 33.527344 18.210938 33.597656 18.183594 C 34.082031 17.988281 34.570312 17.792969 35.0625 17.605469 C 35.078125 17.597656 35.097656 17.589844 35.113281 17.585938 C 37.21875 16.773438 37.21875 16.773438 38.183594 16.585938 C 38.199219 16.582031 38.210938 16.582031 38.226562 16.578125 C 38.722656 16.484375 39.386719 16.496094 39.792969 16.839844 Z M 39.792969 16.839844 "/>
</g>
</svg>
