<svg width="55" height="55" viewBox="0 0 55 55" fill="none" xmlns="http://www.w3.org/2000/svg">
<path d="M0 8.59375C0 3.84755 3.84755 0 8.59375 0H46.4062C51.1524 0 55 3.84755 55 8.59375V46.4062C55 51.1524 51.1524 55 46.4062 55H8.59375C3.84755 55 0 51.1524 0 46.4062V8.59375Z" fill="black"/>
<path d="M30.1162 25.3944L40.3537 13.75H37.9278L29.0386 23.8606L21.9388 13.75H13.75L24.4863 29.0391L13.75 41.25H16.1761L25.5633 30.5728L33.0612 41.25H41.25L30.1156 25.3944H30.1162ZM26.7934 29.1738L25.7056 27.6513L17.0503 15.5371H20.7766L27.7615 25.3137L28.8493 26.8361L37.9289 39.5442H34.2026L26.7934 29.1744V29.1738Z" fill="white"/>
</svg>
