<svg width="55" height="55" viewBox="0 0 55 55" fill="none" xmlns="http://www.w3.org/2000/svg">
<g clip-path="url(#clip0_1_539)">
<path d="M53.9046 14.175C53.5936 13.0049 52.9808 11.937 52.1274 11.0782C51.2741 10.2193 50.2101 9.59969 49.0421 9.28125C44.7421 8.125 27.5546 8.125 27.5546 8.125C27.5546 8.125 10.3671 8.125 6.06705 9.28125C4.89897 9.59969 3.83502 10.2193 2.98167 11.0782C2.12832 11.937 1.5155 13.0049 1.20455 14.175C0.0545503 18.4937 0.0545502 27.5 0.0545502 27.5C0.0545502 27.5 0.0545503 36.5062 1.20455 40.825C1.5155 41.9951 2.12832 43.063 2.98167 43.9218C3.83502 44.7807 4.89897 45.4003 6.06705 45.7187C10.3671 46.875 27.5546 46.875 27.5546 46.875C27.5546 46.875 44.7421 46.875 49.0421 45.7187C50.2101 45.4003 51.2741 44.7807 52.1274 43.9218C52.9808 43.063 53.5936 41.9951 53.9046 40.825C55.0546 36.5062 55.0546 27.5 55.0546 27.5C55.0546 27.5 55.0546 18.4937 53.9046 14.175Z" fill="#FF0000"/>
<path d="M21.9296 35.6782V19.322L36.3046 27.5001L21.9296 35.6782Z" fill="#FEFEFE"/>
</g>
<defs>
<clipPath id="clip0_1_539">
<rect width="55" height="55" fill="white"/>
</clipPath>
</defs>
</svg>
